<?xml version="1.0" encoding="UTF-8"?>
<svg version="1.1" xmlns="http://www.w3.org/2000/svg" width="1428" height="1404">
<path d="M0 0 C5.31374099 3.36170349 10.67993897 6.62139821 16.0859375 9.83203125 C24.37523942 14.76752552 32.56399119 19.85236294 40.7355957 24.97998047 C48.22505884 29.67707587 55.74091542 34.32932339 63.2734375 38.95703125 C71.05219976 43.73602013 78.82641428 48.52185952 86.5859375 53.33203125 C94.40961286 58.18112333 102.2452438 63.01050782 110.0859375 67.83203125 C117.92663175 72.65355502 125.76218084 77.48306978 133.5859375 82.33203125 C144.6270742 89.17420147 155.69077021 95.97955135 166.75537109 102.78369141 C173.2813325 106.79723899 179.80591675 110.81302533 186.33032227 114.82910156 C191.77073717 118.17767836 197.21230902 121.52434581 202.65625 124.8671875 C214.15100631 131.92825209 225.61941755 139.0282597 237.05175781 146.18994141 C247.59484048 152.78843907 258.19147798 159.2990512 268.79052734 165.80712891 C272.09500997 167.83760593 275.39745416 169.87135654 278.69921875 171.90625 C289.0187162 178.26529994 299.34788606 184.60667737 309.7109375 190.89453125 C318.48067119 196.2182045 327.19297068 201.6285759 335.8840332 207.07958984 C343.36389671 211.76730215 350.87525009 216.40172927 358.3984375 221.01953125 C361.62573783 223.00482731 364.85226971 224.99136075 368.078125 226.97900391 C370.00707564 228.16737528 371.93670332 229.3546488 373.8671875 230.54052734 C404.81677757 249.59041453 427.42912044 271.83075989 443.12744141 304.82519531 C444.08130302 306.82232787 445.05641535 308.80793064 446.03515625 310.79296875 C446.65726647 312.07633068 447.27839952 313.36016687 447.8984375 314.64453125 C448.44113281 315.76472656 448.98382812 316.88492187 449.54296875 318.0390625 C453.71453389 327.75490195 454.52156253 336.99679936 454.46688843 347.48205566 C454.47035119 348.93976773 454.47511988 350.39747718 454.48107016 351.85518122 C454.493525 355.83391947 454.48743512 359.81244019 454.47811151 363.79117894 C454.4712986 368.0925459 454.48181332 372.39387656 454.49005127 376.69523621 C454.50336694 385.11096969 454.50052053 393.52662274 454.49181335 401.94235933 C454.48502867 408.78411478 454.48412347 415.62584774 454.4873848 422.46760559 C454.4878445 423.44264177 454.48830419 424.41767794 454.48877782 425.42226067 C454.48973703 427.40324176 454.49070967 429.38422284 454.4916956 431.36520392 C454.50024315 449.92580192 454.49042532 468.48635541 454.4742945 487.04694611 C454.4608919 502.96084443 454.46322017 518.87467709 454.47705078 534.78857422 C454.49311781 553.28432658 454.49941923 571.78003996 454.49021399 590.27579832 C454.48925838 592.24935118 454.48831526 594.22290404 454.4873848 596.19645691 C454.48692197 597.16739514 454.48645914 598.13833336 454.48598229 599.13869396 C454.48339577 605.96949143 454.4877561 612.80026411 454.49482346 619.63105774 C454.50325113 627.95943584 454.50093169 636.28772914 454.48498122 644.61609757 C454.47711556 648.86254295 454.47397773 653.10884714 454.48392868 657.35529137 C454.49291154 661.24758279 454.48788408 665.13960301 454.47199602 669.03187007 C454.46866335 670.43482055 454.47030795 671.83779426 454.47762339 673.24072963 C454.53608875 685.39148143 452.28079095 695.17931109 446.8984375 706.01953125 C446.30470337 707.23709106 446.30470337 707.23709106 445.69897461 708.47924805 C444.88853905 710.13750894 444.07420663 711.79387138 443.25585938 713.44824219 C442.16943747 715.66189482 441.11472364 717.88738809 440.0703125 720.12109375 C433.18793215 734.66025304 423.72888732 746.84627935 413.0859375 758.83203125 C412.21582031 759.81236328 412.21582031 759.81236328 411.328125 760.8125 C400.41681483 772.35436327 386.51358891 780.61024961 373.0859375 788.83203125 C370.99961876 790.11787122 368.91369957 791.40435962 366.828125 792.69140625 C362.38826709 795.42914239 357.94533972 798.16179939 353.5 800.890625 C347.85365981 804.35774955 342.21731692 807.84067405 336.5859375 811.33203125 C325.54491513 818.17438489 314.48110393 824.97955188 303.41650391 831.78369141 C297.97226182 835.13196813 292.5291486 838.48207884 287.0859375 841.83203125 C284.91927642 843.16537367 282.75260975 844.49870699 280.5859375 845.83203125 C279.5134375 846.49203125 278.4409375 847.15203125 277.3359375 847.83203125 C267.58593749 853.83203126 267.58593749 853.83203126 264.33544922 855.83227539 C262.17034308 857.16468594 260.00530394 858.49720535 257.84033203 859.82983398 C252.40033536 863.17818507 246.95916164 866.52459409 241.515625 869.8671875 C230.0245109 876.92601473 218.55931936 884.02312812 207.13110352 891.18334961 C197.56751176 897.16953404 187.95678357 903.0780406 178.34375 908.984375 C172.64677583 912.48504094 166.95780809 915.99844339 161.2734375 919.51953125 C160.42483154 920.04506592 159.57622559 920.57060059 158.7019043 921.11206055 C154.44187645 923.75096892 150.18328606 926.39217948 145.92578125 929.03515625 C136.90016779 934.63466175 127.85446639 940.19779145 118.7734375 945.70703125 C109.82314042 951.13784591 100.93516354 956.66213269 92.06713867 962.22607422 C85.27254038 966.48267887 78.44278525 970.67654356 71.5859375 974.83203125 C63.77762713 979.56510755 56.00959337 984.35690572 48.2734375 989.20703125 C36.70211527 996.46146882 25.07686296 1003.62574701 13.43847656 1010.77197266 C9.96256123 1012.90784315 6.4887481 1015.04709387 3.015625 1017.1875 C1.84359339 1017.90959658 0.6715557 1018.63168327 -0.50048828 1019.35375977 C-2.70487721 1020.71185629 -4.90893139 1022.07049071 -7.11279297 1023.42944336 C-9.10630315 1024.65716362 -11.10112205 1025.88276207 -13.09741211 1027.10595703 C-14.94772022 1028.23984612 -16.79499752 1029.37869875 -18.63891602 1030.52294922 C-32.8932495 1039.2702623 -47.10930356 1042.24471741 -63.625 1039.1328125 C-79.45861749 1034.67608168 -93.06463291 1025.00642732 -101.44921875 1010.73828125 C-105.77696994 1002.15202289 -109.03109087 993.70691298 -109.04828358 984.03360176 C-109.05274142 982.86740968 -109.05719926 981.7012176 -109.06179219 980.49968636 C-109.06160783 979.22258069 -109.06142347 977.94547503 -109.06123352 976.62966919 C-109.06453447 975.25581187 -109.06826053 973.88195552 -109.072375 972.50810039 C-109.08237817 968.73287098 -109.08610913 964.95765746 -109.08876431 961.18241668 C-109.09267277 957.10976345 -109.10225123 953.03712275 -109.11097717 948.96447754 C-109.13073393 939.12431573 -109.14081016 929.28415291 -109.14970496 919.44397622 C-109.15409215 914.80267572 -109.15945812 910.16137636 -109.16469383 905.52007675 C-109.18171094 890.07544504 -109.19620045 874.63081404 -109.20344257 859.18617439 C-109.2053523 855.17864099 -109.20727265 851.1711076 -109.20922852 847.16357422 C-109.20995413 845.66959535 -109.20995413 845.66959535 -109.2106944 844.14543508 C-109.2189771 828.04667127 -109.24428198 811.94798218 -109.27680919 795.84925093 C-109.30998098 779.29542844 -109.32790074 762.74164376 -109.33108681 746.18778789 C-109.33324338 736.90408694 -109.34186517 727.62049471 -109.36754799 718.33682632 C-109.38939427 710.42183045 -109.39723797 702.5069697 -109.38758121 694.59194709 C-109.38307542 690.56272714 -109.38470134 686.53378509 -109.40434265 682.50460434 C-109.62537441 634.44286228 -97.11197492 594.35728445 -63.0390625 559.64453125 C-50.68189331 547.45451028 -36.25776316 538.92123647 -21.47460938 529.98583984 C-16.04042856 526.7009852 -10.61971424 523.3942256 -5.20541382 520.07672119 C-3.50686153 519.03805906 -1.80485042 518.00506005 -0.1027832 516.97216797 C0.92758057 516.34197754 1.95794434 515.71178711 3.01953125 515.0625 C4.3816272 514.23335083 4.3816272 514.23335083 5.77124023 513.38745117 C7.81981455 512.01085936 9.42960376 510.64897503 11.0859375 508.83203125 C10.51488281 508.48648193 9.94382812 508.14093262 9.35546875 507.78491211 C-5.81563275 498.59692884 -20.92839046 489.32003569 -35.9140625 479.83203125 C-36.58598633 479.40664063 -37.25791016 478.98125 -37.95019531 478.54296875 C-73.81412842 455.68595512 -97.013913 421.29958031 -106.77527618 380.20652294 C-109.66724966 365.37928524 -109.35743277 350.42779436 -109.3355546 335.38720524 C-109.33285574 331.28287685 -109.34746857 327.17860128 -109.35964966 323.07429504 C-109.38058212 315.05857779 -109.38525173 307.04293305 -109.38346177 299.02719168 C-109.38214871 292.50838571 -109.38598587 285.98960216 -109.39338684 279.4708004 C-109.39548624 277.58565178 -109.39758384 275.70050315 -109.39967966 273.81535453 C-109.40124495 272.40752504 -109.40124495 272.40752504 -109.40284187 270.97125455 C-109.42169284 253.27034788 -109.42070901 235.56948277 -109.41387254 217.86857023 C-109.40829289 201.70053379 -109.42914967 185.53265559 -109.46223301 169.36465613 C-109.49601588 152.72456764 -109.51113316 136.08455489 -109.50651598 119.44443148 C-109.50427698 110.11757212 -109.50943193 100.79085922 -109.53440857 91.46402931 C-109.55548045 83.52858871 -109.55895481 75.59337505 -109.54010898 67.65792493 C-109.53098981 63.6153826 -109.52969011 59.57326278 -109.55046463 55.53075409 C-109.56932094 51.82032539 -109.56451024 48.11066097 -109.54191881 44.40026005 C-109.53582537 42.44376993 -109.55400605 40.48724888 -109.57345533 38.53084594 C-109.40752823 21.71860712 -102.77699135 7.35078936 -91.32421875 -4.84765625 C-61.82715913 -33.24514963 -29.46922822 -18.66514136 0 0 Z " fill="#034B7D" transform="translate(856.9140625,84.16796875)"/>
<path d="M0 0 C12.65019246 9.84523055 22.30432071 22.87120469 25 39 C25.28839626 43.5559104 25.27418339 48.10214039 25.26069641 52.66596985 C25.26372004 54.05351774 25.26761058 55.44106396 25.27228898 56.82860726 C25.28255166 60.62761166 25.28039151 64.42652151 25.27610838 68.2255336 C25.27363781 72.32873619 25.2826598 76.4319162 25.29014587 80.53511047 C25.30288872 88.57091211 25.30468683 96.60668032 25.30234561 104.64249036 C25.30056071 111.18056546 25.3023158 117.71863044 25.30657005 124.25670433 C25.30716524 125.18820677 25.30776043 126.11970922 25.30837366 127.07943901 C25.30958546 128.97206385 25.3107996 130.86468868 25.31201603 132.75731351 C25.32289138 150.50598059 25.32072995 168.25462867 25.31463119 186.00329681 C25.30947019 202.20802489 25.32069586 218.41269269 25.33972941 234.61740885 C25.35914935 251.2797924 25.36735602 267.9421475 25.36360615 284.60454243 C25.36169936 293.94952481 25.36412996 303.29445599 25.37832069 312.63942909 C25.39028904 320.6013028 25.39157922 328.56309388 25.37953053 336.52496884 C25.37367792 340.57999052 25.37244054 344.63486147 25.38453293 348.68987274 C25.44554317 370.68721386 24.48939769 391.11703581 17 412 C16.58105469 413.20785156 16.16210938 414.41570312 15.73046875 415.66015625 C10.3137975 430.25550962 2.39862349 444.37433894 -8 456 C-8.70640625 456.81339844 -9.4128125 457.62679688 -10.140625 458.46484375 C-25.11075308 475.45018138 -41.46425556 487.19670628 -60.64453125 498.94433594 C-64.1529322 501.093691 -67.65523349 503.25271297 -71.15625 505.4140625 C-88.35793722 516.02748516 -88.35793722 516.02748516 -95 520 C-88.02073764 525.06229693 -80.81999354 529.63019398 -73.42034912 534.05105591 C-38.27429925 555.0747622 -38.27429925 555.0747622 -27 565 C-26.02933594 565.83917969 -25.05867187 566.67835938 -24.05859375 567.54296875 C-17.29756459 573.48889113 -11.43835424 579.79681828 -6 587 C-5.59539551 587.52964355 -5.19079102 588.05928711 -4.77392578 588.60498047 C7.1792596 604.34494969 15.62074536 621.49974341 20.75 640.625 C20.94875732 641.36395508 21.14751465 642.10291016 21.35229492 642.86425781 C24.26258175 654.29583452 25.29619111 665.52678494 25.26742554 677.30088806 C25.27117168 678.69631508 25.275777 680.09174001 25.28115618 681.4871617 C25.29328182 685.28451807 25.29313821 689.08178567 25.29076743 692.87915695 C25.29035661 696.98899595 25.30142325 701.09880748 25.31088257 705.20863342 C25.32743437 713.24541023 25.3329894 721.28215768 25.33410732 729.31895011 C25.33506024 735.85456535 25.33918265 742.39017097 25.34550858 748.92578316 C25.36310242 767.48214743 25.37234995 786.03848865 25.37084763 804.59486132 C25.37072776 806.09272552 25.37072776 806.09272552 25.37060547 807.62084961 C25.37052371 808.62065354 25.37044195 809.62045746 25.37035771 810.65055848 C25.36954457 826.85836236 25.38869415 843.06607336 25.4168822 859.27385037 C25.4456409 875.94201906 25.45942096 892.61014247 25.45769465 909.27833658 C25.45703195 918.62589959 25.46247211 927.97336511 25.48405075 937.32090569 C25.50230153 945.27732762 25.50657769 953.23360786 25.4930319 961.19004171 C25.48652285 965.24452419 25.48631006 969.2987351 25.5037384 973.35319138 C25.51956542 977.07353744 25.51650874 980.79339876 25.49917014 984.51373369 C25.49469061 986.4781559 25.50968123 988.44259373 25.52564943 990.40695614 C25.39261167 1007.72440549 19.27225043 1022.20965495 7.375 1034.75 C-4.82272106 1046.30573574 -19.83505781 1051.54946726 -36.44921875 1051.24609375 C-52.82289097 1050.11128478 -65.80002809 1041.02941618 -79.30078125 1032.5625 C-85.00156649 1028.98784741 -90.74609561 1025.48830454 -96.5 1022 C-104.65195691 1017.04962322 -112.77778928 1012.05953968 -120.8815918 1007.03076172 C-126.74816142 1003.39102705 -132.6251307 999.76866409 -138.5078125 996.1550293 C-149.13853149 989.62470805 -159.74158202 983.05270817 -170.31616211 976.43188477 C-180.18843724 970.2516403 -190.08769775 964.11580766 -200 958 C-201.01320313 957.37480469 -202.02640625 956.74960938 -203.0703125 956.10546875 C-214.63111768 948.97489913 -226.20386697 941.86497168 -237.8125 934.8125 C-247.71835643 928.79398805 -257.58156731 922.70892285 -267.42919922 916.59570312 C-271.68033938 913.95700872 -275.93364717 911.32181855 -280.1875 908.6875 C-281.04102051 908.15890381 -281.89454102 907.63030762 -282.77392578 907.08569336 C-289.84160805 902.71130054 -296.9199072 898.35427003 -304 894 C-331.25977397 877.23271993 -331.25977397 877.23271993 -343.65234375 869.45703125 C-354.97647869 862.35278357 -366.34876128 855.33748398 -377.78707886 848.4190979 C-386.92588039 842.88963001 -396.00845681 837.27607029 -405.0559082 831.59814453 C-412.40976869 826.98541829 -419.791369 822.41961716 -427.1875 817.875 C-428.27426025 817.20694336 -429.36102051 816.53888672 -430.48071289 815.85058594 C-432.62543189 814.53229758 -434.77020627 813.21409931 -436.91503906 811.89599609 C-498.27382203 774.18530374 -498.27382203 774.18530374 -516 745 C-516.38027344 744.38398926 -516.76054688 743.76797852 -517.15234375 743.13330078 C-522.34945004 734.62506233 -526.70043324 725.70513161 -530.9375 716.6875 C-531.41058594 715.6975 -531.88367188 714.7075 -532.37109375 713.6875 C-532.81453125 712.72199219 -533.25796875 711.75648438 -533.71484375 710.76171875 C-534.30446899 709.492677 -534.30446899 709.492677 -534.90600586 708.19799805 C-538.11033768 698.83099458 -538.29060344 689.38500697 -538.26742554 679.57344055 C-538.27116905 678.13991708 -538.27577335 676.70639565 -538.28115618 675.2728774 C-538.29331495 671.36084862 -538.29313419 667.44890582 -538.29076743 663.53686249 C-538.29035745 659.30697655 -538.30141562 655.0771175 -538.31088257 650.84724426 C-538.32745433 642.5702245 -538.33299038 634.29323323 -538.33410732 626.01619826 C-538.33505961 619.2841375 -538.33917888 612.5520861 -538.34550858 605.82002831 C-538.36311047 586.70860391 -538.37234908 567.59720193 -538.37084763 548.48576937 C-538.37076772 547.45671792 -538.3706878 546.42766647 -538.37060547 545.36743164 C-538.37052371 544.33711518 -538.37044195 543.30679873 -538.37035771 542.24526056 C-538.36954508 525.55369229 -538.38867956 508.86221432 -538.4168822 492.17067216 C-538.44565135 475.00761189 -538.45942028 457.8445956 -538.45769465 440.68151063 C-538.45703215 431.05551632 -538.4624631 421.42961669 -538.48405075 411.80364418 C-538.50231566 403.60715063 -538.50656644 395.41079468 -538.4930319 387.21428952 C-538.48652898 383.03806005 -538.4862874 378.86209414 -538.5037384 374.6858902 C-538.51959376 370.85187222 -538.51648044 367.01832404 -538.49917014 363.18431666 C-538.49470216 361.16361737 -538.50965902 359.14290278 -538.52564943 357.12226182 C-538.4350211 344.9305969 -536.11661188 332.87980704 -530.3125 322.0625 C-529.79768066 321.09074829 -529.79768066 321.09074829 -529.27246094 320.09936523 C-528.55296152 318.74372304 -527.82689198 317.39154716 -527.09423828 316.04296875 C-525.99131621 313.98378717 -524.94193096 311.90428724 -523.90234375 309.8125 C-514.58668575 291.26658998 -502.33732261 274.02162983 -486 261 C-485.17757812 260.34 -484.35515625 259.68 -483.5078125 259 C-470.13068594 248.62438937 -455.34860271 240.18039359 -440.89453125 231.41870117 C-433.95738904 227.20875171 -427.06232179 222.93587914 -420.1875 218.625 C-409.58008892 211.97370261 -398.92533448 205.4020033 -388.2578125 198.84765625 C-380.00277774 193.77511806 -371.7666926 188.67212979 -363.53125 183.56787109 C-360.980131 181.98769303 -358.4277571 180.40956142 -355.875 178.83203125 C-347.62074301 173.72971134 -339.3757878 168.61363858 -331.15332031 163.46020508 C-317.55772023 154.94048568 -303.86759255 146.58450442 -290.14550781 138.27050781 C-278.4424535 131.17665643 -266.78583131 124.01691259 -255.19165039 116.74633789 C-247.81789797 112.12561181 -240.41592217 107.55269778 -233 103 C-224.64381729 97.86928272 -216.30905805 92.70669004 -208 87.5 C-196.47099298 80.27752228 -184.88876487 73.14350805 -173.29541016 66.02490234 C-169.99092753 63.99442532 -166.68848334 61.96067471 -163.38671875 59.92578125 C-153.06722219 53.56673186 -142.73812192 47.2252369 -132.375 40.9375 C-123.53608153 35.57305426 -114.75941808 30.11464455 -106.00195312 24.6184082 C-98.03444425 19.62572183 -90.01299261 14.72649327 -81.96337891 9.86743164 C-77.27240376 7.02747008 -72.64192993 4.13337489 -68.08618164 1.08154297 C-46.78545228 -13.15946399 -21.6261257 -14.46026236 0 0 Z " fill="#024076" transform="translate(650,299)"/>
<path d="M0 0 C1.05406097 3.19067103 0.95374964 4.8844127 -0.25 8 C-7.10053993 27.2065366 -7.29947689 46.17585007 -7.23571944 66.32959557 C-7.22682136 69.74288094 -7.22869855 73.1561634 -7.2290802 76.56945801 C-7.22814954 82.28819094 -7.21954208 88.00687015 -7.20581055 93.72558594 C-7.19003112 100.32125358 -7.18481487 106.91686281 -7.1855461 113.51254797 C-7.18622276 120.5717657 -7.17928251 127.6309612 -7.1700995 134.6901722 C-7.16797639 136.7114737 -7.16725949 138.73277158 -7.16686058 140.7540741 C-7.16469041 144.52292789 -7.15593324 148.29170878 -7.14526367 152.06054688 C-7.14571686 153.17130585 -7.14617004 154.28206482 -7.14663696 155.42648315 C-7.14237198 156.45778351 -7.13810699 157.48908386 -7.13371277 158.55163574 C-7.13203692 159.44011955 -7.13036108 160.32860336 -7.12863445 161.24401093 C-7.04259432 164.10637518 -7.04259432 164.10637518 -6.49594498 167.33195591 C-5.96030194 171.29360969 -5.88640792 175.15084687 -5.9311676 179.1370697 C-5.93812799 180.32354665 -5.93812799 180.32354665 -5.94522899 181.53399283 C-5.96190066 184.16977538 -5.98598101 186.80543716 -6.01000977 189.44116211 C-6.02343709 191.33738885 -6.03637406 193.23361911 -6.04885864 195.12985229 C-6.07658316 199.20801872 -6.1074271 203.28614544 -6.14059639 207.36427116 C-6.19277971 213.82553633 -6.23586036 220.28684254 -6.27732849 226.7481842 C-6.39661688 245.12037311 -6.52795761 263.49246527 -6.66870117 281.86450195 C-6.74638555 292.01557366 -6.81643682 302.16667053 -6.8784737 312.31785017 C-6.91809422 318.7270007 -6.96705177 325.13598782 -7.02314579 331.54501426 C-7.05599521 335.55332811 -7.07994615 339.56166039 -7.10152054 343.57004929 C-7.11317758 345.41296488 -7.12836633 347.2558625 -7.14757729 349.09871483 C-7.53594744 370.04819175 -7.53594744 370.04819175 -2 390 C-2.66 390.33 -3.32 390.66 -4 391 C-4.65474408 389.31593731 -5.29833406 387.62753664 -5.9375 385.9375 C-6.29714844 384.99777344 -6.65679687 384.05804687 -7.02734375 383.08984375 C-9.50372225 375.22311526 -9.14888042 367.22348666 -9.14717102 359.05445862 C-9.15047371 357.62438878 -9.15420012 356.19431987 -9.1583125 354.76425213 C-9.1682946 350.84320827 -9.17204316 346.92217973 -9.17470181 343.00112498 C-9.17861614 338.76844871 -9.18819365 334.53578443 -9.19691467 330.30311584 C-9.21664703 320.08562521 -9.22674109 309.86813363 -9.23564246 299.65062872 C-9.24003057 294.83359759 -9.24539601 290.01656755 -9.25063133 285.19953728 C-9.26764021 269.17748652 -9.28213318 253.15543643 -9.28938007 237.13337803 C-9.29128982 232.97864849 -9.29321018 228.82391897 -9.29516602 224.66918945 C-9.29564976 223.63661099 -9.2961335 222.60403253 -9.2966319 221.54016381 C-9.30492777 204.82247963 -9.33025875 188.1048671 -9.36274669 171.38721419 C-9.39586168 154.20620535 -9.41383283 137.02523288 -9.41702431 119.84419197 C-9.41918527 110.20471782 -9.4278732 100.56534818 -9.45348549 90.92590523 C-9.47525319 82.71468282 -9.48321315 74.50359031 -9.47351871 66.29234231 C-9.46899157 62.10803432 -9.47076706 57.92399402 -9.49028015 53.73972321 C-9.5080392 49.89815251 -9.50681248 46.05704223 -9.49138286 42.21546578 C-9.48792187 40.19059283 -9.50393729 38.16571433 -9.52098733 36.14091021 C-9.43322593 23.46120318 -7.23409297 10.67325192 0 0 Z " fill="#00243A" transform="translate(121,620)"/>
<path d="M0 0 C1.05406097 3.19067103 0.95374964 4.8844127 -0.25 8 C-7.08762531 27.17032848 -7.32334872 46.23915468 -7.40471697 66.35818744 C-7.42053625 69.76545648 -7.44726452 73.17264124 -7.4727478 76.57984924 C-7.51920762 83.00731557 -7.55610843 89.43479835 -7.58942068 95.8623448 C-7.62787648 103.1902963 -7.67722366 110.51816245 -7.72740483 117.84604156 C-7.83023574 132.89729766 -7.91965207 147.94860579 -8 163 C-8.33 163 -8.66 163 -9 163 C-9.09379364 145.28340927 -9.1641497 127.56688372 -9.20724869 109.85009766 C-9.22779975 101.62231097 -9.25577609 93.39467931 -9.30175781 85.16699219 C-9.3418557 77.98864821 -9.36748686 70.81041661 -9.37635398 63.63196373 C-9.38153028 59.83740688 -9.39353689 56.04317127 -9.42292023 52.24871826 C-9.70501736 14.31887807 -9.70501736 14.31887807 0 0 Z " fill="#001F50" transform="translate(121,620)"/>
<path d="M0 0 C0.33 0 0.66 0 1 0 C1 64.68 1 129.36 1 196 C0.34 196 -0.32 196 -1 196 C-2.125 188.25 -2.125 188.25 -1 186 C-0.90733042 183.65698306 -0.88252317 181.31121513 -0.88647461 178.96636963 C-0.88632575 178.23385475 -0.88617689 177.50133987 -0.88602352 176.74662757 C-0.88672087 174.27929847 -0.89457616 171.8120428 -0.90234375 169.34472656 C-0.90426192 167.58079063 -0.90572619 165.81685415 -0.9067688 164.05291748 C-0.909936 160.24748993 -0.91621404 156.44208441 -0.92483521 152.63666534 C-0.93832725 146.61957462 -0.94424562 140.6024913 -0.94897461 134.58538818 C-0.96103653 120.72068223 -0.98306513 106.85599537 -1.00520325 92.99130249 C-1.02537786 80.29724445 -1.04345404 67.60319292 -1.05341816 54.90912223 C-1.05840196 48.9279627 -1.06826457 42.946837 -1.08184814 36.96569109 C-1.08931067 33.24190105 -1.09262409 29.51811567 -1.0948143 25.79431915 C-1.09668563 24.06817344 -1.10028522 22.34202859 -1.10574722 20.6158905 C-1.1129734 18.25776035 -1.11400056 15.89970431 -1.11352539 13.54156494 C-1.115746 12.22231144 -1.11796661 10.90305794 -1.12025452 9.54382706 C-1.00901425 6.26564447 -0.62673993 3.21524105 0 0 Z " fill="#016D89" transform="translate(674,1104)"/>
<path d="M0 0 C0.59135742 0.20085205 1.18271484 0.4017041 1.79199219 0.60864258 C0.97021484 1.08430664 0.97021484 1.08430664 0.13183594 1.56958008 C-5.98429489 5.16964408 -11.898092 9.01579659 -17.76489258 13.00463867 C-21.81713812 15.74362145 -25.94050925 18.21784514 -30.20800781 20.60864258 C-36.44818518 24.26836924 -42.5791422 28.08492538 -48.66503906 31.99536133 C-56.43925781 36.92739258 -56.43925781 36.92739258 -61.20800781 37.60864258 C-56.8267654 32.61863807 -51.62485561 29.69024103 -45.89550781 26.42114258 C-43.90631137 25.26646778 -41.91803539 24.11020586 -39.93066406 22.95239258 C-38.46717529 22.10161133 -38.46717529 22.10161133 -36.97412109 21.23364258 C-33.21878305 19.02750577 -29.51829241 16.74190489 -25.83300781 14.42114258 C-25.20579834 14.02862305 -24.57858887 13.63610352 -23.93237305 13.23168945 C-20.53550155 11.09914802 -17.16516735 8.93056738 -13.80957031 6.73364258 C-12.71781494 6.02824341 -12.71781494 6.02824341 -11.60400391 5.30859375 C-10.20681174 4.40526689 -8.81608836 3.49182896 -7.43310547 2.56689453 C-2.69813991 -0.47823068 -2.69813991 -0.47823068 0 0 Z " fill="#005C9A" transform="translate(542.2080078125,326.391357421875)"/>
<path d="M0 0 C0.33 0 0.66 0 1 0 C1.43903276 16.6019425 -0.00022184 28.16545992 -8 43 C-8.66 43 -9.32 43 -10 43 C-9.56766547 41.33198595 -9.12880988 39.66566192 -8.6875 38 C-8.44386719 37.071875 -8.20023438 36.14375 -7.94921875 35.1875 C-7 32 -7 32 -5.49609375 28.37109375 C-3.47630017 23.09261609 -2.99287144 17.6479174 -2.375 12.0625 C-2.1364556 9.99046276 -1.89446323 7.91881851 -1.6484375 5.84765625 C-1.54708496 4.94023682 -1.44573242 4.03281738 -1.34130859 3.09790039 C-1 1 -1 1 0 0 Z " fill="#03113B" transform="translate(1310,750)"/>
<path d="M0 0 C1.05406097 3.19067103 0.95374964 4.8844127 -0.25 8 C-3.65123906 17.535894 -5.40584636 27.01495578 -6.47265625 37.04296875 C-6.73369141 38.50669922 -6.73369141 38.50669922 -7 40 C-7.99 40.495 -7.99 40.495 -9 41 C-9.69703328 26.43974936 -8.41947063 12.42216978 0 0 Z " fill="#031341" transform="translate(121,620)"/>
<path d="M0 0 C0.99 0.33 1.98 0.66 3 1 C-0.22614664 3.69107841 -3.45868327 5.13698222 -7.375 6.625 C-8.47585938 7.05039063 -9.57671875 7.47578125 -10.7109375 7.9140625 C-22.10510934 11.67603373 -34.75091364 10.94895463 -46 7 C-46.99 6.34 -47.98 5.68 -49 5 C-48.67 4.34 -48.34 3.68 -48 3 C-47.10410156 3.47824219 -46.20820312 3.95648437 -45.28515625 4.44921875 C-39.87686197 6.76083937 -34.23836024 6.64695419 -28.4375 6.8125 C-26.77170898 6.88887695 -26.77170898 6.88887695 -25.07226562 6.96679688 C-19.61882554 7.15934802 -15.07679456 7.2714073 -10 5 C-9.25234375 4.71898437 -8.5046875 4.43796875 -7.734375 4.1484375 C-7.07953125 3.89320312 -6.4246875 3.63796875 -5.75 3.375 C-2 2 -2 2 0 2 C0 1.34 0 0.68 0 0 Z " fill="#005897" transform="translate(644,1340)"/>
<path d="M0 0 C-4.99011142 3.80824293 -9.95616788 5.42334814 -16 7 C-16 7.66 -16 8.32 -16 9 C-16.69867187 9.4125 -17.39734375 9.825 -18.1171875 10.25 C-21.66394471 12.40304502 -24.25325003 15.03515091 -27.125 18 C-27.91197266 18.80050781 -27.91197266 18.80050781 -28.71484375 19.6171875 C-30.14685249 21.07457361 -31.57364914 22.53707604 -33 24 C-33.99791014 25.0020855 -34.9965458 26.00346617 -36 27 C-34.36491131 18.60158993 -26.65613315 11.81466692 -20 7 C-5.16646192 -1.72215397 -5.16646192 -1.72215397 0 0 Z " fill="#0066A7" transform="translate(793,66)"/>
<path d="M0 0 C2.92353559 1.09263451 5.60651049 2.32692149 8.3203125 3.8671875 C7.9903125 4.5271875 7.6603125 5.1871875 7.3203125 5.8671875 C6.2684375 5.4340625 6.2684375 5.4340625 5.1953125 4.9921875 C0.11861615 3.00565415 -4.25177237 1.62269003 -9.734375 1.453125 C-10.84296875 1.41445312 -11.9515625 1.37578125 -13.09375 1.3359375 C-14.80691406 1.28953125 -14.80691406 1.28953125 -16.5546875 1.2421875 C-17.72 1.20351562 -18.8853125 1.16484375 -20.0859375 1.125 C-22.95036614 1.03108431 -25.81479442 0.94540767 -28.6796875 0.8671875 C-20.51557439 -4.57555457 -9.02570081 -2.828951 0 0 Z " fill="#005EA0" transform="translate(822.6796875,65.1328125)"/>
<path d="M0 0 C0.77214844 -0.00773437 1.54429687 -0.01546875 2.33984375 -0.0234375 C6.90718089 -0.00787587 10.57673555 0.51970824 14.875 2.25 C14.545 2.91 14.215 3.57 13.875 4.25 C12.885 3.92 11.895 3.59 10.875 3.25 C8.91664992 3.22252315 6.95708075 3.26027408 5 3.3359375 C3.85015625 3.37976563 2.7003125 3.42359375 1.515625 3.46875 C0.31421875 3.5203125 -0.8871875 3.571875 -2.125 3.625 C-3.32640625 3.66882813 -4.5278125 3.71265625 -5.765625 3.7578125 C-12.04595477 3.9059132 -12.04595477 3.9059132 -18.125 5.25 C-17.795 4.26 -17.465 3.27 -17.125 2.25 C-11.37424873 0.32021769 -6.02822233 -0.06099382 0 0 Z " fill="#005C9B" transform="translate(617.125,288.75)"/>
<path d="M0 0 C2.475 0.495 2.475 0.495 5 1 C5 1.66 5 2.32 5 3 C5.86395386 3.18006592 5.86395386 3.18006592 6.74536133 3.36376953 C10.73676208 4.49009225 14.13298104 6.78201386 17.6875 8.875 C18.47189453 9.32230469 19.25628906 9.76960938 20.06445312 10.23046875 C20.81017578 10.66746094 21.55589844 11.10445312 22.32421875 11.5546875 C23.00572998 11.95155762 23.68724121 12.34842773 24.3894043 12.75732422 C26 14 26 14 27 17 C21.03631962 15.45061245 16.35268271 12.25773875 11.25 8.9375 C9.54728673 7.84180783 7.84418101 6.74672519 6.140625 5.65234375 C5.39329102 5.16757568 4.64595703 4.68280762 3.87597656 4.18334961 C2.01543546 2.96649139 2.01543546 2.96649139 0 2 C0 1.34 0 0.68 0 0 Z " fill="#005899" transform="translate(383,1214)"/>
<path d="M0 0 C-3.32604839 2.08188682 -6.652477 4.16316463 -9.97924805 6.24389648 C-11.66279598 7.29704631 -13.34604865 8.35066809 -15.02929688 9.40429688 C-16.09599609 10.07138672 -17.16269531 10.73847656 -18.26171875 11.42578125 C-19.24100342 12.03848877 -20.22028809 12.65119629 -21.22924805 13.2824707 C-22.14359619 13.84925537 -23.05794434 14.41604004 -24 15 C-25.35315308 15.85307739 -25.35315308 15.85307739 -26.73364258 16.72338867 C-29 18 -29 18 -31 18 C-31 17.34 -31 16.68 -31 16 C-30.01 16 -29.02 16 -28 16 C-28 15.34 -28 14.68 -28 14 C-26.5459375 13.566875 -26.5459375 13.566875 -25.0625 13.125 C-21.89335797 12.35785318 -21.89335797 12.35785318 -21 10 C-19.46875 8.921875 -19.46875 8.921875 -17.5 7.75 C-13.54204618 5.37238026 -9.80618639 2.76135193 -6.078125 0.0390625 C-3.52558185 -1.23720908 -2.64785339 -0.79988678 0 0 Z " fill="#0072BC" transform="translate(896,1079)"/>
<path d="M0 0 C0.66 0 1.32 0 2 0 C3.35759933 1.67789874 4.63711805 3.41943088 5.875 5.1875 C8.48114224 8.88861836 11.13900116 12.4911068 14 16 C11.69 16.33 9.38 16.66 7 17 C5.82866942 14.54379149 4.66278278 12.08525083 3.5 9.625 C3.16613281 8.92632813 2.83226563 8.22765625 2.48828125 7.5078125 C0 2.2265625 0 2.2265625 0 0 Z " fill="#013264" transform="translate(120,1015)"/>
<path d="M0 0 C11.71428571 5.42857143 11.71428571 5.42857143 14 10 C15.32 10 16.64 10 18 10 C18 10.66 18 11.32 18 12 C18.99 12 19.98 12 21 12 C21.33 12.66 21.66 13.32 22 14 C23.97522846 15.04808041 25.97481509 16.0520411 28 17 C28 17.66 28 18.32 28 19 C21.96882763 16.75274432 16.67882506 13.38010567 11.1875 10.0625 C10.11306641 9.42892578 9.03863281 8.79535156 7.93164062 8.14257812 C6.91650391 7.52962891 5.90136719 6.91667969 4.85546875 6.28515625 C3.92371826 5.72707275 2.99196777 5.16898926 2.03198242 4.59399414 C1.36142822 4.06797607 0.69087402 3.54195801 0 3 C0 2.01 0 1.02 0 0 Z " fill="#005CA8" transform="translate(437,1246)"/>
<path d="M0 0 C0.66 0 1.32 0 2 0 C1.67 0.99 1.34 1.98 1 3 C0.01 3 -0.98 3 -2 3 C-2.309375 3.8971875 -2.309375 3.8971875 -2.625 4.8125 C-4.52695827 7.8383427 -6.75300404 8.64708502 -10 10 C-10.66 10 -11.32 10 -12 10 C-12 10.66 -12 11.32 -12 12 C-13.32 12 -14.64 12 -16 12 C-16 12.66 -16 13.32 -16 14 C-17.98 14.99 -17.98 14.99 -20 16 C-20.33 15.01 -20.66 14.02 -21 13 C-20.39937744 12.64172119 -19.79875488 12.28344238 -19.17993164 11.91430664 C-16.47320887 10.2985602 -13.76783959 8.68056122 -11.0625 7.0625 C-10.11697266 6.49853516 -9.17144531 5.93457031 -8.19726562 5.35351562 C-6.84858398 4.54624023 -6.84858398 4.54624023 -5.47265625 3.72265625 C-4.64000244 3.22515869 -3.80734863 2.72766113 -2.94946289 2.21508789 C-1.07069197 1.14604392 -1.07069197 1.14604392 0 0 Z " fill="#0069A1" transform="translate(415,403)"/>
<path d="M0 0 C2 2 2 2 2.07421875 5.12890625 C2.04972656 6.40636719 2.02523437 7.68382812 2 9 C2.22647713 11.66177236 2.48308596 14.28949348 2.8125 16.9375 C2.89870605 17.63681641 2.98491211 18.33613281 3.07373047 19.05664062 C3.75210218 24.10269158 4.88584275 28.38729328 7 33 C6.01 33.495 6.01 33.495 5 34 C4.34525592 32.31593731 3.70166594 30.62753664 3.0625 28.9375 C2.70285156 27.99777344 2.34320313 27.05804687 1.97265625 26.08984375 C0.03872154 19.94630017 -0.13828183 13.9340029 -0.0625 7.5625 C-0.05798828 6.83095703 -0.05347656 6.09941406 -0.04882812 5.34570312 C-0.03718148 3.56376581 -0.01925191 1.78187137 0 0 Z " fill="#01072E" transform="translate(112,977)"/>
<path d="M0 0 C5.36789249 2.01703705 9.97077571 4.90104204 14.8125 7.9375 C15.69615234 8.47568359 16.57980469 9.01386719 17.49023438 9.56835938 C18.32490234 10.09107422 19.15957031 10.61378906 20.01953125 11.15234375 C20.78370361 11.62663818 21.54787598 12.10093262 22.33520508 12.58959961 C22.8845874 13.05503174 23.43396973 13.52046387 24 14 C24 14.99 24 15.98 24 17 C21.53199953 15.84826645 19.95216435 14.95216435 18 13 C12.21989707 9.23970999 6.20793456 5.98900553 0 3 C0 2.01 0 1.02 0 0 Z " fill="#0069AF" transform="translate(902,113)"/>
<path d="M0 0 C0.67578125 1.65234375 0.67578125 1.65234375 1 4 C-0.14453125 6.62890625 -0.14453125 6.62890625 -1.8125 9.5625 C-7.06099561 19.60996729 -7.38000867 29.82384043 -8 41 C-8.33 41 -8.66 41 -9 41 C-9.69703328 26.43974936 -8.41947063 12.42216978 0 0 Z " fill="#000626" transform="translate(121,620)"/>
<path d="M0 0 C1.32 0.33 2.64 0.66 4 1 C4 1.66 4 2.32 4 3 C4.68707031 3.08378906 5.37414062 3.16757813 6.08203125 3.25390625 C9.7142906 4.18263655 12.56517291 5.93963499 15.6875 7.9375 C16.26822266 8.29779297 16.84894531 8.65808594 17.44726562 9.02929688 C19.85872438 10.54307966 21.98049429 11.98049429 24 14 C20.02905766 14 19.18412192 13.80946215 15.99609375 11.8828125 C15.25552734 11.44066406 14.51496094 10.99851562 13.75195312 10.54296875 C12.98818359 10.07503906 12.22441406 9.60710937 11.4375 9.125 C10.28604492 8.43470703 10.28604492 8.43470703 9.11132812 7.73046875 C6.02969215 5.87665112 2.9928998 3.99526654 0 2 C0 1.34 0 0.68 0 0 Z " fill="#006CB4" transform="translate(570,1329)"/>
<path d="M0 0 C0.53753906 0.22945313 1.07507813 0.45890625 1.62890625 0.6953125 C-0.09973078 1.80030815 -1.82902763 2.90427164 -3.55859375 4.0078125 C-4.52152344 4.62269531 -5.48445313 5.23757813 -6.4765625 5.87109375 C-14.64720134 11.02047073 -14.64720134 11.02047073 -19.37109375 11.6953125 C-15.14848963 6.71867193 -6.78549901 -0.87194221 0 0 Z " fill="#006AA7" transform="translate(500.37109375,352.3046875)"/>
<path d="M0 0 C-1.28019556 3.84058668 -2.46823967 4.06006761 -6 5.875 C-6.98613281 6.390625 -7.97226562 6.90625 -8.98828125 7.4375 C-9.98214844 7.953125 -10.97601562 8.46875 -12 9 C-13.73272555 9.95188356 -15.46229908 10.90954575 -17.1875 11.875 C-17.92355469 12.28492188 -18.65960937 12.69484375 -19.41796875 13.1171875 C-20.20107422 13.55417969 -20.20107422 13.55417969 -21 14 C-21 13.01 -21 12.02 -21 11 C-19.39526367 9.6496582 -19.39526367 9.6496582 -17.16796875 8.30078125 C-16.36939453 7.81416016 -15.57082031 7.32753906 -14.74804688 6.82617188 C-13.90306641 6.32666016 -13.05808594 5.82714844 -12.1875 5.3125 C-11.35412109 4.80138672 -10.52074219 4.29027344 -9.66210938 3.76367188 C-3.40607268 0 -3.40607268 0 0 0 Z " fill="#0067A4" transform="translate(569,310)"/>
<path d="M0 0 C0 6.33799755 -6.16203353 12.13543916 -10.4296875 16.46484375 C-16.26519304 21.75506435 -16.26519304 21.75506435 -20 23 C-19.34 21.68 -18.68 20.36 -18 19 C-17.34 19 -16.68 19 -16 19 C-15.67 18.01 -15.34 17.02 -15 16 C-14.21625 15.54625 -13.4325 15.0925 -12.625 14.625 C-9.60027505 12.75255122 -8.69162921 11.07568947 -7 8 C-6.02149805 6.97895449 -5.02019573 5.9793879 -4 5 C-2.65263027 3.34466005 -1.31665664 1.67987227 0 0 Z " fill="#006DAF" transform="translate(667,1318)"/>
<path d="M0 0 C0.91523438 0.144375 1.83046875 0.28875 2.7734375 0.4375 C3.96195313 0.623125 5.15046875 0.80875 6.375 1 C8.15003906 1.2784375 8.15003906 1.2784375 9.9609375 1.5625 C12.81820008 2.04749665 12.81820008 2.04749665 15 2 C15 2.66 15 3.32 15 4 C17.10448938 3.85890014 19.2085877 3.71195825 21.3125 3.5625 C22.48425781 3.48128906 23.65601563 3.40007812 24.86328125 3.31640625 C28.02590958 3.1132629 28.02590958 3.1132629 31 2 C33.1875 2.9375 33.1875 2.9375 35 4 C23.64267593 7.16241633 10.64154095 5.75789456 0 1 C0 0.67 0 0.34 0 0 Z " fill="#031D49" transform="translate(148,1040)"/>
<path d="M0 0 C0.33 0 0.66 0 1 0 C1 11.55 1 23.1 1 35 C0.34 35 -0.32 35 -1 35 C-2.125 27.25 -2.125 27.25 -1 25 C-0.84655791 23.11527141 -0.75040429 21.22572126 -0.68359375 19.3359375 C-0.62075195 17.65371094 -0.62075195 17.65371094 -0.55664062 15.9375 C-0.51732422 14.761875 -0.47800781 13.58625 -0.4375 12.375 C-0.39431641 11.19164062 -0.35113281 10.00828125 -0.30664062 8.7890625 C-0.20032574 5.85949672 -0.09829358 2.92984412 0 0 Z " fill="#0076A0" transform="translate(674,1265)"/>
<path d="M0 0 C0 0.66 0 1.32 0 2 C-1.65234375 3.23681641 -1.65234375 3.23681641 -3.9375 4.6015625 C-4.74960937 5.09140625 -5.56171875 5.58125 -6.3984375 6.0859375 C-7.25695312 6.59382813 -8.11546875 7.10171875 -9 7.625 C-10.28777344 8.3984375 -10.28777344 8.3984375 -11.6015625 9.1875 C-13.73056234 10.4648999 -15.86341196 11.73534697 -18 13 C-18.66 12.34 -19.32 11.68 -20 11 C-19.01 11 -18.02 11 -17 11 C-17 10.34 -17 9.68 -17 9 C-15.36816893 7.94410931 -13.69207001 6.9563874 -12 6 C-10.4840625 4.9790625 -10.4840625 4.9790625 -8.9375 3.9375 C-2.96774194 0 -2.96774194 0 0 0 Z " fill="#0066AE" transform="translate(974,1029)"/>
<path d="M0 0 C0.66 0.66 1.32 1.32 2 2 C-4.27 5.96 -10.54 9.92 -17 14 C-17 13.01 -17 12.02 -17 11 C-12.86269348 7.193678 -7.44495329 4.25652768 -2 3 C-1.67 2.34 -1.34 1.68 -1 1 C-0.67 0.67 -0.34 0.34 0 0 Z " fill="#007DC6" transform="translate(863,1096)"/>
<path d="M0 0 C4.59808129 0.53894425 7.86784369 1.76571528 11.875 4.0625 C12.84179688 4.61035156 13.80859375 5.15820312 14.8046875 5.72265625 C15.89136719 6.35494141 15.89136719 6.35494141 17 7 C17 7.99 17 8.98 17 10 C16.10796875 9.50628906 15.2159375 9.01257813 14.296875 8.50390625 C13.11471392 7.85653232 11.93241496 7.20941011 10.75 6.5625 C10.16347656 6.23701172 9.57695313 5.91152344 8.97265625 5.57617188 C6.0274021 3.97117383 3.32105755 2.5836512 0 2 C0 1.34 0 0.68 0 0 Z " fill="#00639E" transform="translate(633,292)"/>
<path d="M0 0 C4.54403698 0.56373391 7.93690206 2.48431612 11.75 4.875 C12.33910156 5.22691406 12.92820312 5.57882813 13.53515625 5.94140625 C17.87505279 8.62515836 17.87505279 8.62515836 19 12 C14.89160936 10.54997977 11.49655387 8.6020866 8 6 C8 5.34 8 4.68 8 4 C7.236875 3.896875 6.47375 3.79375 5.6875 3.6875 C2.82940576 2.95635961 1.84257115 2.23048087 0 0 Z " fill="#0065B9" transform="translate(871,95)"/>
<path d="M0 0 C3.38732317 0.58402124 4.61904917 1.61904917 7 4 C8.97620986 5.04622875 10.9737129 6.05439935 13 7 C13 7.66 13 8.32 13 9 C13.99 9.33 14.98 9.66 16 10 C13 11 13 11 9.86328125 9.453125 C8.67299674 8.72964481 7.48958425 7.99476403 6.3125 7.25 C5.70599609 6.8890625 5.09949219 6.528125 4.47460938 6.15625 C2.73828125 5.078125 2.73828125 5.078125 0 3 C0 2.01 0 1.02 0 0 Z " fill="#005FAA" transform="translate(466,1264)"/>
<path d="M0 0 C0.33 0.99 0.66 1.98 1 3 C-3.62 5.97 -8.24 8.94 -13 12 C-13.33 11.01 -13.66 10.02 -14 9 C-9.38 6.03 -4.76 3.06 0 0 Z " fill="#005B9D" transform="translate(433,392)"/>
<path d="M0 0 C0.99 0.33 1.98 0.66 3 1 C-0.25602996 3.7133583 -3.56153128 5.21435853 -7.5 6.75 C-8.6240625 7.19859375 -9.748125 7.6471875 -10.90625 8.109375 C-13.91001672 8.97409572 -15.15801946 9.14236473 -18 8 C-14.29582513 6.01869716 -11.12772162 4.70473296 -7 4 C-4.66237777 3.34853151 -2.32809543 2.68473395 0 2 C0 1.34 0 0.68 0 0 Z " fill="#0072B9" transform="translate(644,1340)"/>
<path d="M0 0 C0.33 0.66 0.66 1.32 1 2 C1.9075 2.28875 2.815 2.5775 3.75 2.875 C7.22961759 4.07948301 9.2067842 5.64781827 12 8 C13.31138904 8.70885894 14.63777017 9.39456452 16 10 C14.421875 10.74609375 14.421875 10.74609375 12 11 C9.59958109 9.77369903 7.47881286 8.54429316 5.25 7.0625 C4.64800781 6.67642578 4.04601562 6.29035156 3.42578125 5.89257812 C1.94328661 4.93954585 0.47064367 3.97121988 -1 3 C-0.67 2.01 -0.34 1.02 0 0 Z " fill="#005FA8" transform="translate(483,1274)"/>
<path d="M0 0 C-2.82246174 2.1458442 -5.689324 4.19929134 -8.625 6.1875 C-9.78902344 6.98220703 -9.78902344 6.98220703 -10.9765625 7.79296875 C-13 9 -13 9 -15 9 C-13.52519903 5.17551612 -11.54705088 3.74957636 -8.0625 1.6875 C-7.18722656 1.15511719 -6.31195313 0.62273437 -5.41015625 0.07421875 C-3 -1 -3 -1 0 0 Z " fill="#005590" transform="translate(329,459)"/>
<path d="M0 0 C1.17219543 0.78345715 2.33763668 1.57702836 3.5 2.375 C4.47453125 3.03628906 4.47453125 3.03628906 5.46875 3.7109375 C5.9740625 4.13632813 6.479375 4.56171875 7 5 C7 5.66 7 6.32 7 7 C7.78375 7.12375 8.5675 7.2475 9.375 7.375 C12 8 12 8 14 10 C7.83470299 9.68383092 3.82731567 6.50784939 -1 3 C-0.67 2.01 -0.34 1.02 0 0 Z " fill="#0066B2" transform="translate(770,1108)"/>
<path d="M0 0 C-1 3 -1 3 -3.6875 4.5 C-5.3271875 5.2425 -5.3271875 5.2425 -7 6 C-8.11375 6.556875 -9.2275 7.11375 -10.375 7.6875 C-11.24125 8.120625 -12.1075 8.55375 -13 9 C-13 8.01 -13 7.02 -13 6 C-10.91796875 4.39453125 -10.91796875 4.39453125 -8.1875 2.8125 C-7.29417969 2.28269531 -6.40085937 1.75289063 -5.48046875 1.20703125 C-3 0 -3 0 0 0 Z " fill="#0074B0" transform="translate(590,297)"/>
<path d="M0 0 C0.99 0.33 1.98 0.66 3 1 C3 1.66 3 2.32 3 3 C3.556875 3.103125 4.11375 3.20625 4.6875 3.3125 C7.44176578 4.13133577 9.58727657 5.45853781 12 7 C9.47856025 7.93134261 8.38473764 8.16007332 5.859375 7.109375 C5.16328125 6.66078125 4.4671875 6.2121875 3.75 5.75 C3.04359375 5.31171875 2.3371875 4.8734375 1.609375 4.421875 C1.07828125 3.95265625 0.5471875 3.4834375 0 3 C0 2.01 0 1.02 0 0 Z " fill="#0072AC" transform="translate(541,1310)"/>
<path d="M0 0 C3.04049801 3.64859761 4.96518762 7.7444533 7 12 C5.109375 11.671875 5.109375 11.671875 3 11 C0.61517162 7.25241255 -0.39145737 4.43651689 0 0 Z " fill="#0060A6" transform="translate(753,1085)"/>
<path d="M0 0 C0.66 0 1.32 0 2 0 C3.2890625 1.4609375 3.2890625 1.4609375 4.625 3.375 C5.29402344 4.31472656 5.29402344 4.31472656 5.9765625 5.2734375 C7 7 7 7 7 9 C6.34 9 5.68 9 5 9 C4.67 9.66 4.34 10.32 4 11 C3.32880451 9.5437455 2.66318193 8.08492133 2 6.625 C1.62875 5.81289063 1.2575 5.00078125 0.875 4.1640625 C0 2 0 2 0 0 Z " fill="#022147" transform="translate(120,1015)"/>
<path d="M0 0 C0.66 0 1.32 0 2 0 C2 0.66 2 1.32 2 2 C2.99 2 3.98 2 5 2 C5.69965443 3.26418246 6.38434763 4.53665402 7.0625 5.8125 C7.63677734 6.87404297 7.63677734 6.87404297 8.22265625 7.95703125 C9 10 9 10 8 13 C7.71125 12.360625 7.4225 11.72125 7.125 11.0625 C6.17176549 8.84793921 6.17176549 8.84793921 4 8 C2.9296875 6.15234375 2.9296875 6.15234375 1.875 3.9375 C1.52179688 3.20402344 1.16859375 2.47054688 0.8046875 1.71484375 C0.53914063 1.14894531 0.27359375 0.58304687 0 0 Z " fill="#033458" transform="translate(1296,389)"/>
<path d="M0 0 C4.36109605 0.50710419 7.45075299 1.36341651 11 4 C11.33 4.99 11.66 5.98 12 7 C7.39104317 5.68315519 3.85859765 3.84801255 0 1 C0 0.67 0 0.34 0 0 Z " fill="#005088" transform="translate(398,1224)"/>
<path d="M0 0 C4.30764815 1.56641751 8.06171464 3.68336156 12 6 C12 6.33 12 6.66 12 7 C7.33174173 7.70731186 4.96719769 5.92277529 1.35546875 3.2890625 C0.90816406 2.86367187 0.46085937 2.43828125 0 2 C0 1.34 0 0.68 0 0 Z " fill="#00579E" transform="translate(363,1201)"/>
<path d="M0 0 C0 0.66 0 1.32 0 2 C-1.78398614 3.28006797 -3.62853906 4.47660351 -5.5 5.625 C-7.03140625 6.57246094 -7.03140625 6.57246094 -8.59375 7.5390625 C-9.3878125 8.02117187 -10.181875 8.50328125 -11 9 C-10.63165987 6.34795104 -10.3132309 5.26159944 -8.22265625 3.515625 C-7.50980469 3.09796875 -6.79695313 2.6803125 -6.0625 2.25 C-5.35222656 1.82203125 -4.64195312 1.3940625 -3.91015625 0.953125 C-2 0 -2 0 0 0 Z " fill="#005E9E" transform="translate(451,382)"/>
<path d="M0 0 C4.10839064 1.45002023 7.50344613 3.3979134 11 6 C11 6.66 11 7.32 11 8 C8.525 7.01 8.525 7.01 6 6 C6 5.34 6 4.68 6 4 C4.824375 3.814375 4.824375 3.814375 3.625 3.625 C1 3 1 3 -1 1 C-0.67 0.67 -0.34 0.34 0 0 Z " fill="#0070B3" transform="translate(832,70)"/>
<path d="M0 0 C0.66 0.33 1.32 0.66 2 1 C-1.96 3.64 -5.92 6.28 -10 9 C-10.33 8.01 -10.66 7.02 -11 6 C-9.21385682 4.96953278 -7.42089982 3.95086764 -5.625 2.9375 C-4.62726562 2.36902344 -3.62953125 1.80054688 -2.6015625 1.21484375 C-1.74304688 0.81394531 -0.88453125 0.41304687 0 0 Z " fill="#0066AE" transform="translate(1004,1010)"/>
<path d="M0 0 C0.515625 0.2475 1.03125 0.495 1.5625 0.75 C0.9025 0.75 0.2425 0.75 -0.4375 0.75 C-0.4375 1.41 -0.4375 2.07 -0.4375 2.75 C-1.7575 2.75 -3.0775 2.75 -4.4375 2.75 C-4.4375 3.41 -4.4375 4.07 -4.4375 4.75 C-6.4175 5.74 -6.4175 5.74 -8.4375 6.75 C-8.7675 5.76 -9.0975 4.77 -9.4375 3.75 C-3.0375 -0.31153846 -3.0375 -0.31153846 0 0 Z " fill="#005694" transform="translate(403.4375,412.25)"/>
<path d="M0 0 C0 0.66 0 1.32 0 2 C2.97 2 5.94 2 9 2 C9 2.33 9 2.66 9 3 C3.39 3 -2.22 3 -8 3 C-3.5 0 -3.5 0 0 0 Z " fill="#007CBF" transform="translate(802,63)"/>
<path d="M0 0 C1.32 0.33 2.64 0.66 4 1 C4 1.66 4 2.32 4 3 C4.78375 3.0825 5.5675 3.165 6.375 3.25 C9 4 9 4 10.1640625 6.046875 C10.57785156 7.01367188 10.57785156 7.01367188 11 8 C9.72791378 7.37755401 8.45738118 6.75193233 7.1875 6.125 C6.47980469 5.77695313 5.77210938 5.42890625 5.04296875 5.0703125 C3 4 3 4 0 2 C0 1.34 0 0.68 0 0 Z " fill="#00619E" transform="translate(570,1329)"/>
<path d="M0 0 C0.99 0.33 1.98 0.66 3 1 C1.21190303 2.17213045 -0.58059125 3.33755526 -2.375 4.5 C-3.37273437 5.1496875 -4.37046875 5.799375 -5.3984375 6.46875 C-8 8 -8 8 -10 8 C-10 7.34 -10 6.68 -10 6 C-8.27473958 5.0234375 -6.54947917 4.046875 -4.82421875 3.0703125 C-3.18017711 2.10571419 -1.58599412 1.05732941 0 0 Z " fill="#006CA3" transform="translate(1094,954)"/>
<path d="M0 0 C3.11373372 1.49920512 6.12228205 3.08152136 9 5 C9 5.66 9 6.32 9 7 C5.00499382 5.6302836 2.19990508 3.74277578 -1 1 C-0.67 0.67 -0.34 0.34 0 0 Z " fill="#005298" transform="translate(342,1188)"/>
<path d="M0 0 C0.66 0.33 1.32 0.66 2 1 C-0.475 5.455 -0.475 5.455 -3 10 C-3.66 10 -4.32 10 -5 10 C-4.67 8.68 -4.34 7.36 -4 6 C-3.34 6 -2.68 6 -2 6 C-1.855625 5.195625 -1.71125 4.39125 -1.5625 3.5625 C-1 1 -1 1 0 0 Z " fill="#020E32" transform="translate(1305,783)"/>
<path d="M0 0 C0.66 0.66 1.32 1.32 2 2 C0.71186658 2.83878455 -0.58063256 3.67086783 -1.875 4.5 C-2.59429687 4.9640625 -3.31359375 5.428125 -4.0546875 5.90625 C-6 7 -6 7 -8 7 C-8 6.34 -8 5.68 -8 5 C-6.25 3.7109375 -6.25 3.7109375 -4 2.375 C-3.2575 1.92898438 -2.515 1.48296875 -1.75 1.0234375 C-1.1725 0.68570312 -0.595 0.34796875 0 0 Z " fill="#005CA3" transform="translate(350,443)"/>
<path d="M0 0 C3.99500618 1.3697164 6.80009492 3.25722422 10 6 C9.01 6.495 9.01 6.495 8 7 C6.0546875 6.07421875 6.0546875 6.07421875 3.875 4.6875 C2.78832031 4.01267578 2.78832031 4.01267578 1.6796875 3.32421875 C1.12539062 2.88722656 0.57109375 2.45023438 0 2 C0 1.34 0 0.68 0 0 Z " fill="#005C9B" transform="translate(1095,232)"/>
<path d="M0 0 C0.556875 0.226875 1.11375 0.45375 1.6875 0.6875 C-1.5803206 2.86604707 -4.69308265 4.18510034 -8.3125 5.6875 C-7.3125 2.6875 -7.3125 2.6875 -5 0.9375 C-2.3125 -0.3125 -2.3125 -0.3125 0 0 Z " fill="#005695" transform="translate(294.3125,479.3125)"/>
<path d="M0 0 C3.96 1.98 3.96 1.98 8 4 C8 4.99 8 5.98 8 7 C6.66144944 6.21718695 5.32926356 5.42348123 4 4.625 C3.2575 4.18414062 2.515 3.74328125 1.75 3.2890625 C1.1725 2.86367188 0.595 2.43828125 0 2 C0 1.34 0 0.68 0 0 Z " fill="#0063BA" transform="translate(642,295)"/>
<path d="M0 0 C0.59296875 0.21527344 1.1859375 0.43054687 1.796875 0.65234375 C0.51163239 1.51614634 -0.78154919 2.36814744 -2.078125 3.21484375 C-2.79742188 3.69050781 -3.51671875 4.16617187 -4.2578125 4.65625 C-4.89976562 4.98496094 -5.54171875 5.31367187 -6.203125 5.65234375 C-6.863125 5.32234375 -7.523125 4.99234375 -8.203125 4.65234375 C-2.74543269 -0.43323317 -2.74543269 -0.43323317 0 0 Z " fill="#005FB8" transform="translate(933.203125,1054.34765625)"/>
<path d="M0 0 C1.65 0 3.3 0 5 0 C-0.14285714 4.42857143 -0.14285714 4.42857143 -4 5 C-4.33 4.34 -4.66 3.68 -5 3 C-3.68 3 -2.36 3 -1 3 C-0.67 2.01 -0.34 1.02 0 0 Z " fill="#0151A3" transform="translate(1144,922)"/>
<path d="M0 0 C0 0.66 0 1.32 0 2 C-0.66 2 -1.32 2 -2 2 C-2 2.66 -2 3.32 -2 4 C-3.8125 5.0625 -3.8125 5.0625 -6 6 C-6.99 5.67 -7.98 5.34 -9 5 C-7.87926138 4.16094435 -6.75325453 3.32892169 -5.625 2.5 C-4.99851562 2.0359375 -4.37203125 1.571875 -3.7265625 1.09375 C-2 0 -2 0 0 0 Z " fill="#005096" transform="translate(313,467)"/>
<path d="M0 0 C-0.66 1.32 -1.32 2.64 -2 4 C-3.32 4 -4.64 4 -6 4 C-6 4.66 -6 5.32 -6 6 C-6.66 6 -7.32 6 -8 6 C-6.72879117 2.18637351 -4.19078006 0 0 0 Z " fill="#005CA1" transform="translate(385,423)"/>
<path d="M0 0 C0 0.99 0 1.98 0 3 C-3.96 4.98 -3.96 4.98 -8 7 C-6.5361389 2.60841671 -4.02168662 2.12052567 0 0 Z " fill="#005D97" transform="translate(461,375)"/>
<path d="M0 0 C-0.33 0.99 -0.66 1.98 -1 3 C-4.0625 4.1875 -4.0625 4.1875 -7 5 C-7.33 4.34 -7.66 3.68 -8 3 C-3.375 0 -3.375 0 0 0 Z " fill="#005F9B" transform="translate(569,310)"/>
<path d="M0 0 C4.455 1.98 4.455 1.98 9 4 C8.67 4.66 8.34 5.32 8 6 C5.0280615 4.87548273 2.66559313 3.77706209 0 2 C0 1.34 0 0.68 0 0 Z " fill="#005DB2" transform="translate(822,65)"/>
<path d="M0 0 C2.92879371 0.62759865 5.36095629 1.58622659 8 3 C8 3.66 8 4.32 8 5 C4.62537285 4.45276317 2.91765 3.9451 0 2 C0 1.34 0 0.68 0 0 Z " fill="#005194" transform="translate(354,1196)"/>
<path d="M0 0 C0.66 1.32 1.32 2.64 2 4 C1.54625 4.598125 1.0925 5.19625 0.625 5.8125 C-0.63295913 7.50590652 -1.82984724 9.24477086 -3 11 C-2.53199289 6.94393835 -2.12046792 3.53411321 0 0 Z " fill="#031F4A" transform="translate(1305,778)"/>
<path d="M0 0 C0.66 0.33 1.32 0.66 2 1 C-2.296875 5.00390625 -2.296875 5.00390625 -4 6 C-6.203125 5.65234375 -6.203125 5.65234375 -8 5 C-6.71475739 4.13619741 -5.42157581 3.28419631 -4.125 2.4375 C-3.04605469 1.72400391 -3.04605469 1.72400391 -1.9453125 0.99609375 C-1.30335938 0.66738281 -0.66140625 0.33867188 0 0 Z " fill="#024563" transform="translate(847,607)"/>
<path d="M0 0 C0.66 0.33 1.32 0.66 2 1 C-2.39453125 5.00390625 -2.39453125 5.00390625 -4 6 C-4.99 5.67 -5.98 5.34 -7 5 C-2.25 1.125 -2.25 1.125 0 0 Z " fill="#005B98" transform="translate(302,473)"/>
<path d="M0 0 C0 0.99 0 1.98 0 3 C-5.25714286 7 -5.25714286 7 -8 7 C-8 6.34 -8 5.68 -8 5 C-6.25 3.7109375 -6.25 3.7109375 -4 2.375 C-3.2575 1.92898438 -2.515 1.48296875 -1.75 1.0234375 C-1.1725 0.68570312 -0.595 0.34796875 0 0 Z " fill="#00519E" transform="translate(368,432)"/>
<path d="M0 0 C0.33 0.66 0.66 1.32 1 2 C-2.41176471 8.70588235 -2.41176471 8.70588235 -5 10 C-4.38545304 6.00544473 -2.29353263 3.25533664 0 0 Z " fill="#005A99" transform="translate(762,83)"/>
<path d="M0 0 C3.68754757 0.49831724 5.60490662 1.10067643 8 4 C7.01 4.495 7.01 4.495 6 5 C3.98079663 3.69593116 1.98075027 2.36176581 0 1 C0 0.67 0 0.34 0 0 Z " fill="#0061A2" transform="translate(561,1324)"/>
<path d="M0 0 C2.0625 0.4375 2.0625 0.4375 4 1 C4 1.66 4 2.32 4 3 C4.99 3.33 5.98 3.66 7 4 C6.01 4.33 5.02 4.66 4 5 C1.3125 3.0625 1.3125 3.0625 -1 1 C-0.67 0.67 -0.34 0.34 0 0 Z " fill="#005992" transform="translate(475,1270)"/>
<path d="M0 0 C0.99 0.33 1.98 0.66 3 1 C0.69 2.65 -1.62 4.3 -4 6 C-4 5.01 -4 4.02 -4 3 C-2.1875 1.25 -2.1875 1.25 0 0 Z " fill="#006BB0" transform="translate(850,1104)"/>
<path d="M0 0 C0.66 0.33 1.32 0.66 2 1 C0 4 0 4 -3.125 4.6875 C-4.07375 4.790625 -5.0225 4.89375 -6 5 C-2.25 1.125 -2.25 1.125 0 0 Z " fill="#00528F" transform="translate(234,515)"/>
<path d="M0 0 C-0.33 0.99 -0.66 1.98 -1 3 C-1.99 3 -2.98 3 -4 3 C-4.33 3.99 -4.66 4.98 -5 6 C-5.99 5.34 -6.98 4.68 -8 4 C-2.25 0 -2.25 0 0 0 Z " fill="#005CAA" transform="translate(417,403)"/>
<path d="M0 0 C0.33 0.99 0.66 1.98 1 3 C-1.475 4.485 -1.475 4.485 -4 6 C-4.33 5.01 -4.66 4.02 -5 3 C-3.35 2.01 -1.7 1.02 0 0 Z " fill="#00559F" transform="translate(493,355)"/>
<path d="M0 0 C0.556875 0.226875 1.11375 0.45375 1.6875 0.6875 C-5.0625 4.6875 -5.0625 4.6875 -7.3125 4.6875 C-7.3125 4.0275 -7.3125 3.3675 -7.3125 2.6875 C-3.15982824 -0.42700382 -3.15982824 -0.42700382 0 0 Z " fill="#006AAB" transform="translate(542.3125,326.3125)"/>
<path d="M0 0 C2.875 0.25 2.875 0.25 6 1 C7.375 3.0625 7.375 3.0625 8 5 C4.62496331 3.8141763 2.35277269 2.72426311 0 0 Z " fill="#0061A8" transform="translate(882,102)"/>
<path d="" fill="#000000" transform="translate(0,0)"/>
<path d="" fill="#000000" transform="translate(0,0)"/>
<path d="" fill="#000000" transform="translate(0,0)"/>
<path d="" fill="#000000" transform="translate(0,0)"/>
<path d="" fill="#000000" transform="translate(0,0)"/>
<path d="" fill="#000000" transform="translate(0,0)"/>
<path d="" fill="#000000" transform="translate(0,0)"/>
<path d="" fill="#000000" transform="translate(0,0)"/>
<path d="" fill="#000000" transform="translate(0,0)"/>
<path d="" fill="#000000" transform="translate(0,0)"/>
<path d="" fill="#000000" transform="translate(0,0)"/>
<path d="" fill="#000000" transform="translate(0,0)"/>
<path d="" fill="#000000" transform="translate(0,0)"/>
<path d="" fill="#000000" transform="translate(0,0)"/>
<path d="" fill="#000000" transform="translate(0,0)"/>
<path d="" fill="#000000" transform="translate(0,0)"/>
<path d="" fill="#000000" transform="translate(0,0)"/>
<path d="" fill="#000000" transform="translate(0,0)"/>
<path d="" fill="#000000" transform="translate(0,0)"/>
<path d="" fill="#000000" transform="translate(0,0)"/>
<path d="" fill="#000000" transform="translate(0,0)"/>
<path d="" fill="#000000" transform="translate(0,0)"/>
<path d="" fill="#000000" transform="translate(0,0)"/>
<path d="" fill="#000000" transform="translate(0,0)"/>
<path d="" fill="#000000" transform="translate(0,0)"/>
<path d="" fill="#000000" transform="translate(0,0)"/>
<path d="" fill="#000000" transform="translate(0,0)"/>
<path d="" fill="#000000" transform="translate(0,0)"/>
<path d="" fill="#000000" transform="translate(0,0)"/>
<path d="" fill="#000000" transform="translate(0,0)"/>
<path d="" fill="#000000" transform="translate(0,0)"/>
<path d="" fill="#000000" transform="translate(0,0)"/>
<path d="" fill="#000000" transform="translate(0,0)"/>
<path d="" fill="#000000" transform="translate(0,0)"/>
<path d="" fill="#000000" transform="translate(0,0)"/>
<path d="" fill="#000000" transform="translate(0,0)"/>
</svg>
